<svg width="32" height="32" version="1.1" xmlns="http://www.w3.org/2000/svg" desc="Created with imagetracer.js version 1.2.6" ><path fill="rgb(0,69,82)" stroke="rgb(0,69,82)" stroke-width="1" opacity="1" d="M 6.5 10 L 9 10.5 L 6.5 11 L 6.5 10 Z " /><path fill="rgb(0,69,82)" stroke="rgb(0,69,82)" stroke-width="1" opacity="1" d="M 21.5 10 L 27 10.5 L 13.5 12 L 13.5 11 Q 19.8 12.8 21.5 10 Z " /><path fill="rgb(0,69,82)" stroke="rgb(0,69,82)" stroke-width="1" opacity="1" d="M 11.5 15 Q 17.5 13.5 19 16.5 L 17.5 16 L 11.5 16 L 11.5 15 Z " /><path fill="rgb(0,76,89)" stroke="rgb(0,76,89)" stroke-width="1" opacity="1" d="M 8.5 5 L 27.5 5 L 28 7 L 7 6.5 L 8.5 5 Z " /><path fill="rgb(0,76,89)" stroke="rgb(0,76,89)" stroke-width="1" opacity="1" d="M 13.5 10 L 21 10.5 L 13.5 11 L 13.5 10 Z " /><path fill="rgb(0,76,89)" stroke="rgb(0,76,89)" stroke-width="1" opacity="1" d="M 8.5 21 L 15 21.5 L 8.5 22 L 8.5 21 Z " /><path fill="rgb(0,76,89)" stroke="rgb(0,76,89)" stroke-width="1" opacity="1" d="M 8.5 25 L 14 25.5 L 8.5 26 L 8.5 25 Z " /><path fill="rgb(0,76,89)" stroke="rgb(0,76,89)" stroke-width="1" opacity="1" d="M 5.5 30 L 11 30.5 L 5.5 31 L 5.5 30 Z " /><path fill="rgb(0,176,220)" stroke="rgb(0,176,220)" stroke-width="1" opacity="1" d="M 4.5 5 L 7 5.5 L 2.5 8 L 4.5 5 Z " /><path fill="rgb(0,176,220)" stroke="rgb(0,176,220)" stroke-width="1" opacity="1" d="M 1.5 9 L 4 10.5 L 2.5 11 L 1.5 9 Z " /><path fill="rgb(0,176,220)" stroke="rgb(0,176,220)" stroke-width="1" opacity="1" d="M 10.5 11 L 9.5 13 L 10.5 11 Z " /><path fill="rgb(0,176,220)" stroke="rgb(0,176,220)" stroke-width="1" opacity="1" d="M 9.5 15 L 11 15.5 L 7.5 17 L 7.5 16 L 9.5 15 Z " /><path fill="rgb(0,176,220)" stroke="rgb(0,176,220)" stroke-width="1" opacity="1" d="M 1.5 29 L 4 30.5 L 2.5 31 L 1.5 29 Z " /><path fill="rgb(5,14,16)" stroke="rgb(5,14,16)" stroke-width="1" opacity="1" d="M 5.5 9 L 26 9.5 L 5.5 10 L 5.5 9 Z " /><path fill="rgb(5,14,16)" stroke="rgb(5,14,16)" stroke-width="1" opacity="1" d="M 10.5 17 L 17 17.5 L 10.5 18 L 10.5 17 Z " /><path fill="rgb(5,14,16)" stroke="rgb(5,14,16)" stroke-width="1" opacity="1" d="M 8.5 22 L 15 22.5 L 8.5 23 L 8.5 22 Z " /><path fill="rgb(5,14,16)" stroke="rgb(5,14,16)" stroke-width="1" opacity="1" d="M 6.5 27 L 14 27.5 L 6.5 28 L 6.5 27 Z " /><path fill="rgb(0,196,251)" stroke="rgb(0,196,251)" stroke-width="1" opacity="1" d="M 1.5 0 L 3.5 1 Q 5 -1.5 10.5 0 L 11.5 2 L 6.5 3 L 4.5 3 L 2.5 4 L 2 2.5 L 2.5 1 Q 0.3 0.3 1 2.5 L 0 2.5 L 1.5 0 Z " /><path fill="rgb(0,196,251)" stroke="rgb(0,196,251)" stroke-width="1" opacity="1" d="M 13.5 0 L 15.5 0 L 20.5 1 L 22.5 0 L 21.5 2 L 18.5 1 L 13 2 L 13.5 0 Z " /><path fill="rgb(0,196,251)" stroke="rgb(0,196,251)" stroke-width="1" opacity="1" d="M 26.5 0 Q 30.3 -0.8 31 1.5 L 28.5 2 L 25 1.5 L 26.5 0 Z " /><path fill="rgb(0,196,251)" stroke="rgb(0,196,251)" stroke-width="1" opacity="1" d="M 30.5 9 L 31 11.5 Q 32.5 15.9 29.5 15 Q 27.8 12.3 26 16.5 L 27.5 19 L 28.5 16 Q 32.7 14.9 31 19 L 29 19.5 L 31 20 L 30 23.5 L 31 25.5 L 28.5 24 Q 25.9 23.3 27 26 L 31 27 L 30.5 32 L 28.5 28 Q 25.8 29.3 28 30.5 L 27.5 32 L 26 29.5 L 27 27.5 L 24.5 29 L 21.5 28 L 22 29.5 Q 21.1 32.5 25.5 31 L 25.5 32 L 19.5 32 L 15 28.5 L 17 28.5 L 17.5 27 L 19.5 27 Q 22.8 28.1 22 25.5 L 20 25.5 L 20.5 24 L 17.5 25 L 19.5 22 Q 23.9 20.5 23 23.5 L 24 23.5 Q 23.2 20.9 26.5 22 L 26.5 21 L 24.5 20 Q 23.3 22.3 22 19.5 L 24 19.5 Q 23.3 17.3 25.5 18 L 25.5 17 L 21 18 L 21.5 15 L 25.5 16 L 25.5 15 L 23 13.5 L 24.5 14 L 26.5 15 Q 29.3 13.8 27 12.5 L 30.5 9 Z M 29 20 Q 27 23 30 22 L 29 20 Z M 24 25 Q 22 28 25 27 L 24 25 Z M 19 29 L 20 31 Q 21 28 19 29 Z " /><path fill="rgb(0,196,251)" stroke="rgb(0,196,251)" stroke-width="1" opacity="1" d="M 1.5 12 L 3 12.5 L 1 13.5 L 5 16.5 L 3 17.5 L 4 19.5 L 3 19.5 L 0 13.5 L 1.5 12 Z " /><path fill="rgb(0,196,251)" stroke="rgb(0,196,251)" stroke-width="1" opacity="1" d="M 1.5 21 L 2 23 L 4 23.5 L 2.5 24 L 0 23.5 L 1.5 21 Z " /><path fill="rgb(0,196,251)" stroke="rgb(0,196,251)" stroke-width="1" opacity="1" d="M 14.5 31 L 17 31.5 L 14.5 32 L 14.5 31 Z " /><path fill="rgb(0,137,166)" stroke="rgb(0,137,166)" stroke-width="1" opacity="1" d="M 8.5 3 L 29.5 3 L 31 4.5 L 29.5 4 L 8.5 4 L 8.5 3 Z " /><path fill="rgb(0,137,166)" stroke="rgb(0,137,166)" stroke-width="1" opacity="1" d="M 6.5 8 L 28 8.5 L 6.5 9 L 6.5 8 Z " /><path fill="rgb(0,137,166)" stroke="rgb(0,137,166)" stroke-width="1" opacity="1" d="M 6.5 21 L 5.5 23 L 6.5 21 Z " /><path fill="rgb(0,137,166)" stroke="rgb(0,137,166)" stroke-width="1" opacity="1" d="M 8.5 23 L 16 23.5 L 8.5 24 L 8.5 23 Z " /><path fill="rgb(0,137,166)" stroke="rgb(0,137,166)" stroke-width="1" opacity="1" d="M 6.5 25 L 5.5 27 L 3.5 28 L 4.5 26 L 6.5 25 Z " /><path fill="rgb(0,102,121)" stroke="rgb(0,102,121)" stroke-width="1" opacity="1" d="M 7.5 5 L 6.5 7 L 7.5 5 Z " /><path fill="rgb(0,102,121)" stroke="rgb(0,102,121)" stroke-width="1" opacity="1" d="M 12.5 13 L 20 13.5 L 12.5 14 L 12.5 13 Z " /><path fill="rgb(0,102,121)" stroke="rgb(0,102,121)" stroke-width="1" opacity="1" d="M 10.5 18 L 18 18.5 L 10.5 19 L 10.5 18 Z " /><path fill="rgb(0,102,121)" stroke="rgb(0,102,121)" stroke-width="1" opacity="1" d="M 9.5 20 L 16.5 20 L 17 22.5 L 16 22.5 Q 16.5 19.5 9.5 21 L 9.5 20 Z " /><path fill="rgb(0,102,121)" stroke="rgb(0,102,121)" stroke-width="1" opacity="1" d="M 7.5 21 L 6.5 23 L 7.5 21 Z " /><path fill="rgb(0,102,121)" stroke="rgb(0,102,121)" stroke-width="1" opacity="1" d="M 6.5 28 L 13 28.5 L 6.5 29 L 6.5 28 Z " /><path fill="rgb(12,2,1)" stroke="rgb(12,2,1)" stroke-width="1" opacity="1" d="M 8.5 4 L 30 4.5 L 8.5 5 L 8.5 4 Z " /><path fill="rgb(12,2,1)" stroke="rgb(12,2,1)" stroke-width="1" opacity="1" d="M 6.5 7 L 28 7.5 L 6.5 8 L 6.5 7 Z " /><path fill="rgb(12,2,1)" stroke="rgb(12,2,1)" stroke-width="1" opacity="1" d="M 12.5 12 L 20 12.5 L 12.5 13 L 12.5 12 Z " /><path fill="rgb(12,2,1)" stroke="rgb(12,2,1)" stroke-width="1" opacity="1" d="M 12.5 14 L 19 14.5 L 12.5 15 L 12.5 14 Z " /><path fill="rgb(12,2,1)" stroke="rgb(12,2,1)" stroke-width="1" opacity="1" d="M 9.5 19 L 17 19.5 L 9.5 20 L 9.5 19 Z " /><path fill="rgb(12,2,1)" stroke="rgb(12,2,1)" stroke-width="1" opacity="1" d="M 7.5 24 L 15 24.5 L 7.5 25 L 7.5 24 Z " /><path fill="rgb(12,2,1)" stroke="rgb(12,2,1)" stroke-width="1" opacity="1" d="M 5.5 29 L 13 29.5 L 5.5 30 L 5.5 29 Z " /><path fill="rgb(0,204,254)" stroke="rgb(0,204,254)" stroke-width="1" opacity="1" d="M 7.5 2 L 30.5 2 L 32 3.5 L 30.5 7 L 31 5.5 L 30.5 3 L 7.5 3 L 4.5 4 L 4.5 3 L 7.5 2 Z " /><path fill="rgb(0,204,254)" stroke="rgb(0,204,254)" stroke-width="1" opacity="1" d="M 1.5 7 L 5 8.5 L 0.5 10 L 1 8.5 L 1.5 7 Z " /><path fill="rgb(0,204,254)" stroke="rgb(0,204,254)" stroke-width="1" opacity="1" d="M 28.5 10 L 27.5 12 Q 23 11 22 13.5 L 17.5 23 L 17 21.5 L 22 11 L 28.5 10 Z " /><path fill="rgb(0,204,254)" stroke="rgb(0,204,254)" stroke-width="1" opacity="1" d="M 3.5 11 L 8.5 11 L 9 13 L 10.5 13 L 10.5 14 Q 7.2 12.9 8 15.5 L 7 15.5 L 8 12 L 3.5 12 L 3.5 11 Z " /><path fill="rgb(0,204,254)" stroke="rgb(0,204,254)" stroke-width="1" opacity="1" d="M 6.5 17 L 9 18.5 L 6 19 L 5.5 21 L 5 19.5 L 6.5 17 Z " /><path fill="rgb(0,204,254)" stroke="rgb(0,204,254)" stroke-width="1" opacity="1" d="M 4.5 22 L 7 23.5 L 4 24 L 4.5 22 Z " /><path fill="rgb(0,204,254)" stroke="rgb(0,204,254)" stroke-width="1" opacity="1" d="M 16.5 24 L 17 25.5 L 14.5 30 L 14 28.5 L 16.5 24 Z " /><path fill="rgb(0,204,254)" stroke="rgb(0,204,254)" stroke-width="1" opacity="1" d="M 2.5 28 L 5 28.5 L 2.5 29 L 2.5 28 Z " /><path fill="rgb(0,204,254)" stroke="rgb(0,204,254)" stroke-width="1" opacity="1" d="M 2.5 31 L 13 31.5 L 2.5 32 L 2.5 31 Z " /><path fill="rgb(0,197,251)" stroke="rgb(0,197,251)" stroke-width="1" opacity="1" d="M 31.5 0 L 32 2.5 L 31 2.5 L 31.5 0 Z " /><path fill="rgb(0,197,251)" stroke="rgb(0,197,251)" stroke-width="1" opacity="1" d="M 0.5 3 L 2.5 4 L 4 3.5 L 3.5 6 L 1.5 7 L 2 5.5 Q 2.8 3.3 0.5 4 L 0.5 3 Z " /><path fill="rgb(0,197,251)" stroke="rgb(0,197,251)" stroke-width="1" opacity="1" d="M 30.5 5 L 32 6.5 L 32 31.5 L 31 31.5 Q 32 27 29.5 26 L 27 25.5 L 28.5 24 L 31 25.5 L 29.5 22 Q 27.3 22.8 28 20.5 L 31 21.5 L 30 19.5 L 31 16 L 28.5 15 L 27.5 19 L 25.5 16 L 22 15.5 L 26 14.5 L 23 12.5 L 24.5 12 L 27 12.5 L 27.5 15 L 29.5 15 Q 32.5 15.5 31 8.5 L 30.5 5 Z " /><path fill="rgb(0,197,251)" stroke="rgb(0,197,251)" stroke-width="1" opacity="1" d="M 0.5 10 L 3 11.5 L 0.5 13 L 0.5 10 Z " /><path fill="rgb(0,197,251)" stroke="rgb(0,197,251)" stroke-width="1" opacity="1" d="M 5.5 15 L 6.5 17 L 5.5 15 Z " /><path fill="rgb(0,197,251)" stroke="rgb(0,197,251)" stroke-width="1" opacity="1" d="M 23.5 17 L 25 17.5 L 23 20.5 L 24 23.5 L 23 23.5 Q 23.8 20.9 20.5 22 L 21 20.5 L 23.5 17 Z " /><path fill="rgb(0,197,251)" stroke="rgb(0,197,251)" stroke-width="1" opacity="1" d="M 18.5 21 L 19 22.5 L 17 23.5 L 18.5 21 Z " /><path fill="rgb(0,197,251)" stroke="rgb(0,197,251)" stroke-width="1" opacity="1" d="M 2 24 L 5 25.5 L 2 26.5 L 1.5 29 L 1 26.5 L 2 24 Z " /><path fill="rgb(0,197,251)" stroke="rgb(0,197,251)" stroke-width="1" opacity="1" d="M 19 24 L 22 25.5 L 21.5 27 L 20.5 25 L 19.5 27 L 19 24 Z " /><path fill="rgb(0,197,251)" stroke="rgb(0,197,251)" stroke-width="1" opacity="1" d="M 21.5 28 L 24 29.5 L 22.5 30 L 21.5 28 Z " /><path fill="rgb(0,197,251)" stroke="rgb(0,197,251)" stroke-width="1" opacity="1" d="M 0.5 30 L 1.5 32 L 0.5 30 Z " /><path fill="rgb(0,197,251)" stroke="rgb(0,197,251)" stroke-width="1" opacity="1" d="M 14.5 30 L 13.5 32 L 14.5 30 Z " /><path fill="rgb(0,196,250)" stroke="rgb(0,196,250)" stroke-width="1" opacity="1" d="M 0.5 0 L 2.5 1 L 4 0.5 L 1 2.5 L 0.5 0 Z " /><path fill="rgb(0,196,250)" stroke="rgb(0,196,250)" stroke-width="1" opacity="1" d="M 23.5 0 L 26 0.5 L 22.5 2 L 23.5 0 Z " /><path fill="rgb(0,196,250)" stroke="rgb(0,196,250)" stroke-width="1" opacity="1" d="M 30.5 0 L 29.5 2 L 30.5 0 Z " /><path fill="rgb(0,196,250)" stroke="rgb(0,196,250)" stroke-width="1" opacity="1" d="M 1.5 4 L 2 5.5 L 0.5 9 L 0 6.5 L 1.5 4 Z " /><path fill="rgb(0,196,250)" stroke="rgb(0,196,250)" stroke-width="1" opacity="1" d="M 3.5 12 L 8 13.5 L 4 23 Q 1 21.8 2 25.5 L 0.5 29 L 0 24.5 L 2 21.5 L 0 21.5 L 1 18.5 L 0 15.5 L 1 15.5 L 2.5 18 L 5 16.5 L 4 14 L 1 13.5 L 3.5 12 Z " /><path fill="rgb(0,196,250)" stroke="rgb(0,196,250)" stroke-width="1" opacity="1" d="M 22.5 13 L 25 13.5 L 22 15 L 22.5 13 Z " /><path fill="rgb(0,196,250)" stroke="rgb(0,196,250)" stroke-width="1" opacity="1" d="M 24.5 20 L 25.5 22 Q 22.7 22.7 24.5 20 Z " /><path fill="rgb(0,196,250)" stroke="rgb(0,196,250)" stroke-width="1" opacity="1" d="M 18.5 25 L 19 27.5 L 17 27.5 L 16 29.5 L 17.5 30 Q 18.8 27.8 20 30.5 L 17.5 32 L 15 31 L 16 26 L 18.5 25 Z " /><path fill="rgb(0,196,250)" stroke="rgb(0,196,250)" stroke-width="1" opacity="1" d="M 23.5 25 L 24.5 27 Q 21.7 27.7 23.5 25 Z " /><path fill="rgb(0,196,250)" stroke="rgb(0,196,250)" stroke-width="1" opacity="1" d="M 26.5 27 L 27 28.5 L 27 30.5 L 26.5 32 L 22 30.5 L 26.5 27 Z " /><path fill="rgb(0,196,250)" stroke="rgb(0,196,250)" stroke-width="1" opacity="1" d="M 28.5 28 L 30 32 Q 26.2 33.2 28.5 28 Z " /><path fill="rgb(0,54,62)" stroke="rgb(0,54,62)" stroke-width="1" opacity="1" d="M 18.5 15 L 17.5 17 L 11 16.5 L 18.5 15 Z " /><path fill="rgb(0,54,62)" stroke="rgb(0,54,62)" stroke-width="1" opacity="1" d="M 7.5 26 L 14 26.5 L 7.5 27 L 7.5 26 Z " /></svg>